PathFileType	4	(X/Y/Z)	28_2_52_p1_0-495_filt_butterworth.trc
DataRate	CameraRate	NumFrames	NumMarkers	Units	OrigDataRate	OrigDataStartFrame	OrigNumFrames
60.0	60.0	5	27	m	60.0	0	495
Frame#	Time	RHip			RKnee			RAnkle			RBigToe			RSmallToe			RHeel			LHip			LKnee			LAnkle			LBigToe			LSmallToe			LHeel			Neck			Head			Nose			RShoulder			RElbow			RWrist			RThumb			RIndex			RPinky			LShoulder			LElbow			LWrist			LThumb			LIndex			LPinky			
		X1	Y1	Z1	X2	Y2	Z2	X3	Y3	Z3	X4	Y4	Z4	X5	Y5	Z5	X6	Y6	Z6	X7	Y7	Z7	X8	Y8	Z8	X9	Y9	Z9	X10	Y10	Z10	X11	Y11	Z11	X12	Y12	Z12	X13	Y13	Z13	X14	Y14	Z14	X15	Y15	Z15	X16	Y16	Z16	X17	Y17	Z17	X18	Y18	Z18	X19	Y19	Z19	X20	Y20	Z20	X21	Y21	Z21	X22	Y22	Z22	X23	Y23	Z23	X24	Y24	Z24	X25	Y25	Z25	X26	Y26	Z26	X27	Y27	Z27	
0	0.0	0.21821183263896107	0.6099498925808549	0.9187823552757644	0.20846143457511437	0.833213651071973	1.3155472987215566	0.21296691345231167	1.074114369722887	1.7219678500358209	0.15461138006705338	0.8292249762110991	1.7720803477856102	0.23683880008531566	0.876878932761651	1.7855525432300667	0.20495946245907637	1.191413942119402	1.784307433558713	-0.005338142362251171	0.6355539491649173	0.924882666587037	0.00669992892231378	0.8354679429361472	1.3276776105197396	0.021268971396483375	1.0602676806984412	1.7248411845655183	0.01976121449889446	0.8445625161470237	1.777601984497107	-0.03828025793604224	0.9372136280087822	1.7823621451297893	0.054675485673668436	1.1898436101652707	1.7875376766763693	0.08801088087648816	0.3984494912822575	0.32239152628158435	0.08194634824578964	0.21084941288982564	0.12564873084868075	0.08052038959636951	0.20331421084994988	0.2744425808245029	0.27199946154948895	0.4263632778008619	0.41203538284691166	0.30213852215668613	0.48218203966188844	0.6905734341648386	0.131114165794314	0.4169072149473644	0.9013717817917669	0.06883942890729465	0.4814454576632189	0.9551102141042365	0.06463164281574704	0.5096952100540495	0.9854689991130217	0.0697031263530159	0.4999569157303905	0.9968430168806195	-0.09134260529320117	0.44321844426548723	0.401744247738715	-0.12323630775343279	0.5288271258861577	0.6826676527281913	0.027640026731953687	0.39421564623192296	0.8869673553006392	0.1261502460922041	0.403172510027648	0.9406466360822963	0.13123873663173324	0.428510728792592	0.9739960664145906	0.08170636848267135	0.47564083742184116	1.0062024724899077
1	0.0166666666666666	0.21772274182580958	0.6082829888551703	0.9174641953410512	0.20537624977961422	0.824111488336255	1.3151442186261515	0.21785235113407792	1.063154030790374	1.7194996442106758	0.15492084444100435	0.8307726081620989	1.7742357849165633	0.2371454429517524	0.8777007036840565	1.7885835283031406	0.20361467844734427	1.1901366202000023	1.7823960795223464	-0.005376518174051395	0.6357293239641424	0.9248539718692713	0.006632813447556179	0.8352384914577283	1.3275486949105122	0.021450633150590964	1.0592040177095374	1.7263581971602413	0.02010731541995444	0.8438102230937927	1.7761143613031105	-0.037915895113280355	0.9361267402005466	1.7803999152213097	0.05606791427025154	1.191287191056821	1.7873316912699433	0.08800706938988798	0.398368053239257	0.3224365336617956	0.08193095333967162	0.21084842824142302	0.1257105835447589	0.08039667223661434	0.20254922305144318	0.2732158841221742	0.2728033879529941	0.41937438909568187	0.4137912893317719	0.30404763601712453	0.47709480137562765	0.6911541030553757	0.13114158146984695	0.4170948911033297	0.9013632438435693	0.06999668452329671	0.48204005883205137	0.9561119853419202	0.06476297942684806	0.509705750722209	0.9861650309421833	0.0696427780868526	0.5002102795632466	0.9965423762074457	-0.09006712874760711	0.44341254631115057	0.4004673950170995	-0.12299466795089481	0.5292341259986786	0.6849862967796704	0.027994252652916905	0.3958388424181906	0.8889931335602193	0.12613640307860066	0.40356399493750555	0.9406669704763484	0.12960367895314384	0.4220430540807974	0.9731517234658825	0.08411710994098222	0.4681243657328334	1.0075142123640777
2	0.0333333333333333	0.21740422825761022	0.6072570659397057	0.9164532050730894	0.20360563834008943	0.8185773996655042	1.314882401432655	0.22079522758317394	1.0565245307186892	1.7179899632513078	0.15493595396377474	0.8312843225177926	1.7748494304179625	0.23728724914476418	0.8780213873293341	1.7903265194621865	0.20280835017680443	1.1893759380804112	1.7812262041348437	-0.005403202601903629	0.6358151072636973	0.9248325518768871	0.006584931748839636	0.8351084571510933	1.3274646701925226	0.021649083355801402	1.0581924758267798	1.7264193766596112	0.020391832492645055	0.8431416549906765	1.7746719213622422	-0.03744280901013858	0.9350867297046151	1.7784469891622077	0.05799056270533268	1.1896448322491278	1.7864533914579839	0.08800687295050352	0.3983115622375248	0.32244965093151373	0.08187692881264771	0.2108578093236881	0.12568994437096168	0.08064614252161906	0.2010546854554905	0.2730051660504306	0.2721320398039707	0.4151719562113062	0.4149190042759789	0.3053820092097412	0.478359297170426	0.6909124182807707	0.13116475764962263	0.41725503798361707	0.9013694943941408	0.07117487146609636	0.48261148510345353	0.9572970869574183	0.06490634555853517	0.5097324521451121	0.9866927353984568	0.06957424355939337	0.5003701268027355	0.9958665254960565	-0.08907772273115029	0.44354681170393145	0.3994999090452059	-0.12278983447922269	0.5294605067604501	0.6862555008251316	0.027789263908582832	0.39692408469291945	0.8901483749228218	0.1261431446127911	0.4039209942637153	0.9406903397467975	0.12870743689615183	0.41815689495088054	0.9721723289882512	0.08553268568316694	0.4635791340691457	1.0084649265133352
3	0.05	0.21725793000313504	0.6069111491696652	0.9156647246680456	0.20358803696510774	0.8169603384595097	1.3147817935436046	0.22164009673263496	1.054578165112716	1.7175222238971535	0.1546157101434862	0.8307154319162984	1.7739892000482704	0.2372000359094007	0.8776014489804977	1.7903611276389384	0.20258358648895153	1.1891569334607621	1.7808721467556026	-0.005412953264643462	0.6357992910111699	0.924806997845893	0.006562480457151992	0.8351042619779022	1.3274639735694993	0.02193034663295263	1.0573509044896903	1.7251689410796047	0.020544123629378745	0.8427548292799277	1.7736277467722181	-0.03693073677218413	0.9344087256367934	1.777254267601515	0.060121697514033845	1.1850786050199025	1.7852486792012892	0.08800857413033453	0.398280114036229	0.3224321378056886	0.0817729858067786	0.21081944179615966	0.12543099346736222	0.08144947591548868	0.19826432472292477	0.27373125039595025	0.2704083363927238	0.41305039829268253	0.41556623827312467	0.30570282472996824	0.4851927792649028	0.6899768235290161	0.13118430739261933	0.4173501998530981	0.9013967575478529	0.0722448664257044	0.48307776101606786	0.9585143983615647	0.06510928512284345	0.5098559031790657	0.9874613234744379	0.06951592967188741	0.5004211363507107	0.9949660054324422	-0.0882466409592223	0.44365900330710933	0.39874261744910133	-0.1226497480361481	0.529488411201803	0.6864431055091815	0.027022490844625408	0.39745491161945284	0.8903418925005324	0.1261794014975529	0.40417018990239806	0.9407134619868265	0.1286046660113527	0.4170084105152728	0.9713214044993133	0.08589962228002142	0.46223235394522144	1.0091484859735473
4	0.0666666666666666	0.2172027830285146	0.6068964060805148	0.9150705822890671	0.2049170235927067	0.8173508813568555	1.314784275418398	0.22145654520901065	1.054937057148543	1.7175789577708565	0.1541754138304818	0.8298292405620041	1.7728359223158316	0.23693468938885515	0.8768825906606486	1.7890729246219639	0.20264011553584485	1.1891872321275143	1.7809505402159047	-0.005412000341779778	0.6357470077408712	0.9247661234552591	0.006559748632896659	0.8351667972525967	1.3275424063056116	0.022291071648948915	1.0568785852346514	1.72385456503683	0.02057156596748698	0.8427357812839039	1.7732725451812326	-0.03653701615193317	0.934366663154656	1.7772956570602159	0.061757968165275075	1.1810135849255563	1.7846369055571487	0.08800816722193826	0.39825337424904905	0.3224070448895795	0.08173067778572868	0.21063119789575374	0.1248199831712515	0.08254189944436113	0.19478650841649836	0.2745610904705369	0.26926531312750845	0.4104312350376724	0.41628614111438805	0.30494212122332737	0.49186381254891764	0.6891272751988913	0.13120703230543243	0.4173574054485689	0.901427292632584	0.07296750678226158	0.4830712560516336	0.9593463479528046	0.06531449016328883	0.5101327143475844	0.9885595003992064	0.06947911434798086	0.500393918418414	0.99429416607254	-0.08756086927827358	0.44378472518223483	0.39816448846538566	-0.12259931554898382	0.5294371748086326	0.6861903489331899	0.026608992777322895	0.39771233381172594	0.8901361406269377	0.12622386663108753	0.40421085686132824	0.9407234280423997	0.12886719583034206	0.41707788720255934	0.9708829079159329	0.08579401553278773	0.46243122251813734	1.0095863050732645
